# xmcd CD database file
#
# Track frame offsets:
#	150
#	14104
#	29522
#	46044
#	59674
#	70500
#	86571
#	100227
#	117619
#	131554
#	146661
#	160135
#	180199
#	195035
#
# Disc length: 2884 seconds
#
# Revision: 0
# Processed by: cddbd v1.4PL0 Copyright (c) Steve Scherf et al.
# Submitted via: CDex 1.50beta9
#
DISCID=ba0b420e
DTITLE=T.G.Sheppard - Live At Billy Bob's Taxzs
DYEAR=1900
DGENRE=Country
TTITLE0=I Loved Em Everyone
TTITLE1=Slow Burn
TTITLE2=Last Cheater's Waltz
TTITLE3=Do You Wanna Go To Heaven
TTITLE4=There's Only One You
TTITLE5=Devil In The Bottle
TTITLE6=War Is Hell (ON The Homefront Too)
TTITLE7=I Fooled Around and Fell In Love
TTITLE8=You Feel Good All Over
TTITLE9=Whatever You're Lookin' For (You're Lookin At)
TTITLE10=I  Feel Like Loving You Again
TTITLE11=One For The Money
TTITLE12=It's Party Time
TTITLE13=Finally
EXTD=
EXTT0=
EXTT1=
EXTT2=
EXTT3=
EXTT4=
EXTT5=
EXTT6=
EXTT7=
EXTT8=
EXTT9=
EXTT10=
EXTT11=
EXTT12=
EXTT13=
PLAYORDER=
